:FULLY-SPECIFIED
:FORCE-ALL-JOINTS-BE-3DOF
:DEGREES
130
root 9.07471 16.1104 -19.115 5.73117 6.77182 4.44648
lfemur 13.961 2.11255 -25.7023
ltibia 8.29643 0 0
lfoot -12.9104 1.90649 0
ltoes -7.43072 0 0
rfemur -40.211 9.81924 7.72673
rtibia 26.59 0 0
rfoot -22.5972 -11.1631 0
rtoes -20.5933 0 0
lowerback -7.83088 -3.46037 -5.53275
upperback -1.24796 -4.18078 2.30484
thorax 3.68399 -2.1774 5.01935
lowerneck -19.4063 -5.64263 -13.4594
upperneck 20.2392 -6.62315 11.6135
head 10.5818 -2.78627 5.43966
lclavicle -4.38244e-14 -1.29161e-14 0
lhumerus -31.7711 -24.2244 96.5704
lradius 38.6591 0 0
lwrist 9.70071 0 0
lhand -9.59732 -23.4899 0
lfingers 7.12502 0 0
lthumb 16.3685 5.80179 0
rclavicle -4.38244e-14 -1.29161e-14 0
rhumerus -46.7994 7.31397 -82.7332
rradius 33.8418 0 0
rwrist -18.3257 0 0
rhand -29.5152 -23.7707 0
rfingers 7.12502 0 0
rthumb -2.84919 -53.7309 0
131
root 9.05028 16.1263 -18.9624 5.78387 6.84342 4.28821
lfemur 13.3329 2.28588 -25.378
ltibia 9.67917 0 0
lfoot -12.4919 2.22785 0
ltoes -7.60255 0 0
rfemur -39.837 9.5753 8.19703
rtibia 26.6777 0 0
rfoot -22.3266 -10.8199 0
rtoes -20.4256 0 0
lowerback -7.73801 -3.40757 -5.38044
upperback -1.25936 -4.12361 2.33864
thorax 3.60779 -2.14616 4.97836
lowerneck -19.3845 -5.68743 -13.4911
upperneck 20.0779 -6.6851 11.7014
head 10.5361 -2.80845 5.4632
lclavicle -4.32993e-14 -1.18883e-14 0
lhumerus -32.1623 -23.8957 96.5877
lradius 38.3157 0 0
lwrist 9.54788 0 0
lhand -9.34679 -23.3512 0
lfingers 7.12502 0 0
lthumb 16.6093 5.91528 0
rclavicle -4.32993e-14 -1.18883e-14 0
rhumerus -46.7527 7.37993 -82.7019
rradius 33.8727 0 0
rwrist -18.3455 0 0
rhand -29.481 -23.8528 0
rfingers 7.12502 0 0
rthumb -2.81617 -53.8134 0
132
root 9.02585 16.1423 -18.8099 5.83657 6.91502 4.12993
lfemur 12.7047 2.4592 -25.0536
ltibia 11.0619 0 0
lfoot -12.0735 2.54921 0
ltoes -7.77437 0 0
rfemur -39.463 9.33136 8.66734
rtibia 26.7654 0 0
rfoot -22.056 -10.4767 0
rtoes -20.2578 0 0
lowerback -7.64514 -3.35476 -5.22813
upperback -1.27077 -4.06644 2.37244
thorax 3.5316 -2.11492 4.93737
lowerneck -19.3628 -5.73223 -13.5228
upperneck 19.9165 -6.74706 11.7894
head 10.4904 -2.83064 5.48674
lclavicle -4.27741e-14 -1.08604e-14 0
lhumerus -32.5535 -23.5671 96.605
lradius 37.9722 0 0
lwrist 9.39505 0 0
lhand -9.09626 -23.2126 0
lfingers 7.12502 0 0
lthumb 16.8501 6.02876 0
rclavicle -4.27741e-14 -1.08604e-14 0
rhumerus -46.7059 7.4459 -82.6706
rradius 33.9036 0 0
rwrist -18.3652 0 0
rhand -29.4468 -23.935 0
rfingers 7.12502 0 0
rthumb -2.78315 -53.8959 0
133
root 9.00142 16.1583 -18.6573 5.88927 6.98662 3.97166
lfemur 12.0766 2.63253 -24.7292
ltibia 12.4447 0 0
lfoot -11.655 2.87057 0
ltoes -7.9462 0 0
rfemur -39.089 9.08741 9.13764
rtibia 26.8531 0 0
rfoot -21.7854 -10.1336 0
rtoes -20.0901 0 0
lowerback -7.55227 -3.30196 -5.07582
upperback -1.28218 -4.00927 2.40624
thorax 3.4554 -2.08368 4.89638
lowerneck -19.341 -5.77704 -13.5545
upperneck 19.7552 -6.80902 11.8773
head 10.4447 -2.85282 5.51028
lclavicle -4.2249e-14 -9.83255e-15 0
lhumerus -32.9447 -23.2384 96.6223
lradius 37.6287 0 0
lwrist 9.24222 0 0
lhand -8.84573 -23.074 0
lfingers 7.12502 0 0
lthumb 17.0909 6.14225 0
rclavicle -4.2249e-14 -9.83255e-15 0
rhumerus -46.6592 7.51186 -82.6393
rradius 33.9345 0 0
rwrist -18.385 0 0
rhand -29.4126 -24.0171 0
rfingers 7.12502 0 0
rthumb -2.75013 -53.9784 0
134
root 8.97699 16.1743 -18.5047 5.94197 7.05822 3.81338
lfemur 11.4484 2.80586 -24.4048
ltibia 13.8274 0 0
lfoot -11.2365 3.19193 0
ltoes -8.11802 0 0
rfemur -38.715 8.84347 9.60794
rtibia 26.9408 0 0
rfoot -21.5148 -9.79039 0
rtoes -19.9224 0 0
lowerback -7.4594 -3.24916 -4.92351
upperback -1.29359 -3.9521 2.44004
thorax 3.37921 -2.05244 4.8554
lowerneck -19.3192 -5.82184 -13.5862
upperneck 19.5938 -6.87098 11.9653
head 10.399 -2.87501 5.53382
lclavicle -4.17239e-14 -8.80469e-15 0
lhumerus -33.3359 -22.9098 96.6396
lradius 37.2853 0 0
lwrist 9.08939 0 0
lhand -8.5952 -22.9354 0
lfingers 7.12502 0 0
lthumb 17.3317 6.25574 0
rclavicle -4.17239e-14 -8.80469e-15 0
rhumerus -46.6125 7.57782 -82.608
rradius 33.9654 0 0
rwrist -18.4047 0 0
rhand -29.3784 -24.0992 0
rfingers 7.12502 0 0
rthumb -2.71711 -54.0609 0
135
root 8.95255 16.1903 -18.3522 5.99467 7.12982 3.6551
lfemur 10.8202 2.97919 -24.0805
ltibia 15.2101 0 0
lfoot -10.818 3.51329 0
ltoes -8.28985 0 0
rfemur -38.341 8.59953 10.0782
rtibia 27.0284 0 0
rfoot -21.2443 -9.44721 0
rtoes -19.7546 0 0
lowerback -7.36653 -3.19635 -4.7712
upperback -1.305 -3.89492 2.47383
thorax 3.30302 -2.0212 4.81441
lowerneck -19.2974 -5.86664 -13.618
upperneck 19.4324 -6.93294 12.0533
head 10.3533 -2.89719 5.55736
lclavicle -4.11987e-14 -7.77683e-15 0
lhumerus -33.727 -22.5812 96.6568
lradius 36.9418 0 0
lwrist 8.93656 0 0
lhand -8.34467 -22.7968 0
lfingers 7.12502 0 0
lthumb 17.5724 6.36923 0
rclavicle -4.11987e-14 -7.77683e-15 0
rhumerus -46.5657 7.64378 -82.5767
rradius 33.9963 0 0
rwrist -18.4244 0 0
rhand -29.3442 -24.1813 0
rfingers 7.12502 0 0
rthumb -2.68409 -54.1433 0
